<?xml version="1.0" encoding="utf-8"?>
<!-- Generator: Adobe Illustrator 16.0.0, SVG Export Plug-In . SVG Version: 6.00 Build 0)  -->
<!DOCTYPE svg PUBLIC "-//W3C//DTD SVG 1.1//EN" "http://www.w3.org/Graphics/SVG/1.1/DTD/svg11.dtd">
<svg version="1.1" id="Capa_1" xmlns="http://www.w3.org/2000/svg" xmlns:xlink="http://www.w3.org/1999/xlink" x="0px" y="0px"
	 width="25px" height="25px" viewBox="0 0 25 25" enable-background="new 0 0 25 25" xml:space="preserve">
<g>
	<g>
		<path fill="#501D46" d="M21.874,15.625H18.75V12.5h3.124V15.625z M16.406,3.906c0,0.583-0.129,1.138-0.357,1.633L12.5,12.5
			L8.951,5.539c-0.229-0.496-0.357-1.05-0.357-1.633C8.594,1.749,10.342,0,12.5,0S16.406,1.749,16.406,3.906L16.406,3.906z
			 M14.843,3.906c0-1.293-1.048-2.343-2.343-2.343s-2.344,1.05-2.344,2.343c0,1.294,1.05,2.344,2.344,2.344S14.843,5.2,14.843,3.906
			L14.843,3.906z M25,6.25v15.625C25,23.6,23.602,25,21.874,25H3.125C1.399,25,0,23.6,0,21.875V6.25
			c0-1.726,1.399-3.125,3.125-3.125H7.11C7.073,3.382,7.03,3.638,7.03,3.906c0,0.265,0.049,0.521,0.086,0.782H6.25v4.687h2.902
			l0.795,1.562H6.25v6.25h9.375v-6.25H15.05l2.14-4.193v2.631h6.248V6.25c0-0.861-0.701-1.562-1.563-1.562h-3.989
			c0.038-0.26,0.083-0.517,0.083-0.782c0-0.268-0.038-0.524-0.077-0.781h3.983C23.602,3.125,25,4.524,25,6.25L25,6.25z M4.688,18.75
			H1.562v3.125c0,0.861,0.703,1.563,1.563,1.563h1.563V18.75z M4.688,10.937H1.562v6.25h3.126V10.937z M4.688,4.688H3.125
			c-0.86,0-1.563,0.701-1.563,1.562v3.125h3.126V4.688z M15.625,18.75H6.25v4.688h9.375V18.75z M23.438,18.75h-6.248v4.688h4.686
			c0.861,0,1.563-0.701,1.563-1.563V18.75L23.438,18.75z M23.438,10.937h-6.248v6.25h6.248V10.937z"/>
	</g>
</g>
</svg>
