<?xml version="1.0" encoding="utf-8"?>
<!-- Generator: Adobe Illustrator 16.0.0, SVG Export Plug-In . SVG Version: 6.00 Build 0)  -->
<!DOCTYPE svg PUBLIC "-//W3C//DTD SVG 1.1//EN" "http://www.w3.org/Graphics/SVG/1.1/DTD/svg11.dtd">
<svg version="1.1" id="Capa_1" xmlns="http://www.w3.org/2000/svg" xmlns:xlink="http://www.w3.org/1999/xlink" x="0px" y="0px"
	 width="25px" height="25px" viewBox="0 0 25 25" enable-background="new 0 0 25 25" xml:space="preserve">
<g>
	<path fill="#501D46" d="M12.5,0C5.607,0,0,5.608,0,12.5C0,19.393,5.607,25,12.5,25C19.393,25,25,19.393,25,12.5
		C25,5.608,19.393,0,12.5,0L12.5,0z M12.5,22.341c-5.426,0-9.841-4.413-9.841-9.841c0-5.427,4.415-9.841,9.841-9.841
		c5.427,0,9.842,4.414,9.842,9.841C22.342,17.928,17.927,22.341,12.5,22.341L12.5,22.341z"/>
	<path fill="#501D46" d="M19.016,12.115h-5.619V5.36c0-0.568-0.459-1.03-1.028-1.03c-0.567,0-1.03,0.462-1.03,1.03v7.783
		c0,0.568,0.463,1.028,1.03,1.028h6.646c0.569,0,1.029-0.46,1.029-1.028C20.043,12.575,19.584,12.115,19.016,12.115L19.016,12.115z"
		/>
</g>
</svg>
